<mxfile host="app.diagrams.net" modified="2023-10-03T13:31:57.246Z" agent="Mozilla/5.0 (Macintosh; Intel Mac OS X 10_15_7) AppleWebKit/537.36 (KHTML, like Gecko) Chrome/115.0.0.0 Safari/537.36" version="22.0.2" etag="cqyK1RSnIrVE-MOkOHOC" type="github">
  <diagram name="페이지-1" id="huxOZEN074syEcbmEc4z">
    <mxGraphModel>
      <root>
        <mxCell id="0" />
        <mxCell id="1" parent="0" />
      </root>
    </mxGraphModel>
  </diagram>
</mxfile>
